<svg width="56" height="56" viewBox="0 0 56 56" fill="none" xmlns="http://www.w3.org/2000/svg">
<rect width="56" height="56" rx="28" fill="black"/>
<path d="M20.2806 42.4243C18.2736 42.4243 16.494 42.0638 14.9419 41.343C13.4166 40.6222 12.2124 39.4875 11.3293 37.939C10.4729 36.3639 10.0448 34.2948 10.0448 31.7318V27.4068C10.0448 25.9117 10.0448 24.4033 10.0448 22.8816C10.0448 21.3598 10.0314 19.8247 10.0046 18.2762C10.0046 17.235 9.50957 16.5809 8.51944 16.3139L7.63635 16.1137V15.2727H18.4743V16.1137L17.3503 16.354C16.3334 16.5943 15.825 17.2617 15.825 18.3563C15.7982 19.8514 15.7849 21.3598 15.7849 22.8816C15.7849 24.3766 15.7849 25.8851 15.7849 27.4068V32.4927C15.7849 35.0824 16.3067 36.9512 17.3503 38.0992C18.4207 39.2472 19.9327 39.8212 21.8862 39.8212C23.9467 39.8212 25.5523 39.2072 26.703 37.9791C27.8805 36.7243 28.4692 34.8688 28.4692 32.4126V18.4765C28.4692 17.9425 28.3622 17.4753 28.1481 17.0748C27.934 16.6744 27.5594 16.4207 27.0242 16.3139L26.0608 16.1137V15.2727H32.2424V16.1137L31.1185 16.354C30.61 16.4608 30.2621 16.7011 30.0748 17.0748C29.8875 17.4486 29.7938 17.9025 29.7938 18.4364V32.1724C29.7938 35.4829 28.9241 38.0191 27.1847 39.7812C25.4453 41.5432 23.1439 42.4243 20.2806 42.4243Z" fill="white"/>
<path d="M19.6034 42.4242L21.3004 41.5616L25.4545 39.8788C26.0247 39.6597 26.5372 39.3863 26.7273 39.0303C26.9445 38.6743 27.1515 38.36 27.1515 37.7576C28 36.0606 28.5498 35.9342 28.5498 34.3733C28.5498 32.785 28.5498 31.1967 28.5498 29.6084V28.1297C28.5498 26.5414 28.5362 24.9668 28.5091 23.4059C28.5091 21.8176 28.5091 20.2293 28.5091 18.641C28.5091 17.9838 28.4141 17.4909 28.224 17.1623C28.0339 16.8063 27.6402 16.5324 27.0429 16.3407L26.3913 16.1353V15.2727H37.8764C41.1345 15.2727 43.4967 15.8889 44.9629 17.1212C46.4291 18.3261 47.1622 19.8596 47.1622 21.7217C47.1622 23.1457 46.6463 24.4328 45.6145 25.5829C44.5828 26.7057 42.7772 27.5135 40.1978 28.0064C43.1845 28.335 45.343 29.1155 46.6735 30.3478C48.0039 31.5801 48.6691 33.0862 48.6691 34.8662C48.6691 35.7425 48.479 36.6325 48.0989 37.5362C47.7188 38.4125 47.0672 39.2203 46.144 39.9597C45.248 40.699 44.0262 41.3015 42.4785 41.767C40.9309 42.2052 38.976 42.4242 36.6138 42.4242H19.6034ZM34.3331 27.7189H36.2473C38.0936 27.7189 39.424 27.3081 40.2385 26.4866C41.0802 25.6377 41.5011 24.2 41.5011 22.1736C41.5011 20.065 41.121 18.5862 40.3607 17.7373C39.6005 16.8884 38.4058 16.464 36.7767 16.464H34.3331V27.7189ZM34.3331 41.233H36.5731C38.6095 41.233 40.1299 40.7264 41.1345 39.7132C42.1392 38.7 42.6415 37.0706 42.6415 34.8251C42.6415 32.6618 42.1527 31.1419 41.1753 30.2656C40.225 29.3619 38.6502 28.9101 36.4509 28.9101H34.3331V41.233Z" fill="white"/>
<path d="M36.0606 28.9077C35.2121 28.9077 35.6363 30.1211 35.6363 30.1211H40.303L46.2424 29.2726L44.1212 27.9998C44.1212 27.9998 40.6769 27.8872 40.2266 27.9999C40.2266 27.9999 36.9091 28.9077 36.0606 28.9077Z" fill="black"/>
</svg>
