<svg width="533" height="500" viewBox="0 0 533 500" fill="none" xmlns="http://www.w3.org/2000/svg">
<path d="M527.807 249.699C521.472 272.85 512.578 294.807 498.636 314.094C483.974 334.369 473.578 356.636 462.294 378.644C441.497 418.686 414.21 453.543 373.399 476.372C339.333 495.629 301.872 503.568 261.043 497.501C231.207 493.142 202.894 483.24 177.006 466.709C174.254 465.009 171.502 463.308 168.259 462.961C139.833 459.313 115.086 447.158 92.4551 429.631C64.7541 408.231 41.9541 383.021 25.0696 353.098C12.1681 330.175 3.435 305.773 1.08877 280.539C-1.61528 251.608 0.994546 223.628 13.4237 197.612C16.3711 191.436 17.5334 184.141 21.0827 178.739C25.4195 172.069 28.3462 164.69 32.6487 158.16C40.1462 147.023 44.8234 134.465 50.8764 122.758C58.6421 107.957 68.7156 94.7272 79.8691 82.2614C95.3561 65.0715 113.161 50.0543 134.055 39.2311C152.579 29.663 171.626 20.5467 192.919 15.8276C208.2 12.3495 223.13 7.72123 238.648 5.21047C289.017 -3.00598 339.242 -0.336707 389.247 17.3877C427.889 31.0501 461.041 52.8421 487.404 84.1811C524.206 127.845 538.36 176.581 531.108 229.854C530.266 236.494 528.945 243.145 527.807 249.699ZM403.046 446.096C405.116 446.699 406.268 445.239 407.317 444.198C417.852 434.246 427.716 423.799 435.602 411.728C438.216 407.55 443.615 404.933 443.808 399.002C440.654 399.579 438.841 401.146 438.04 403.757C436.609 408.279 433.28 411.5 430.212 414.947C421.157 425.33 412.215 435.896 403.159 446.279C391.968 454.392 380.776 462.506 369.551 470.759C376.67 467.595 383.528 464.206 389.512 459.215C394.334 455.082 400.542 452.401 403.046 446.096ZM225.483 446.864C239.457 448.693 250.807 447.661 261.513 443.448C272.402 439.138 280.213 431.237 288.58 423.647C299.913 413.03 308.972 400.702 316.734 387.846C323.64 376.537 329.535 364.184 334.246 351.487C345.613 321.419 353.804 290.725 351.836 257.518C349.768 222.784 340.378 190.107 319.191 160.278C284.662 111.888 232.49 90.0883 176.467 96.8057C172.869 97.2537 169.351 98.0241 166.672 100.536C149.365 116.747 135.265 135.389 124.324 156C109.388 183.829 100.787 214.254 97.51 246.232C92.8887 292.038 99.8338 336.576 124.175 378.703C136.691 400.615 151.247 421.326 175.55 433.352C182.748 436.948 190.525 442.06 198.181 438.005C206.452 433.381 214.6 427.973 221.145 421.348C248.58 392.972 261.377 358.382 258.772 318.103C257.878 302.423 250.982 288.587 239.518 276.562C237.382 274.292 232.299 271.762 234.968 268.648C237.351 266.05 242.025 268.311 245.334 270.324C246.562 271.131 247.755 272.078 248.766 273.121C261.685 286.318 271.14 301.35 274.091 318.977C280.252 356.401 270.303 389.726 250.923 420.151C244.509 430.107 236.003 438.255 225.483 446.864ZM323.827 425.991C325.591 425.906 326.547 425.886 327.242 425.639C349.635 416.451 370.144 404.617 389.972 391.687C405.252 381.772 418.92 370.039 431.951 357.672C440.856 349.19 449.533 340.344 453.856 328.581C464.583 299.824 471.282 270.042 472.179 238.717C473.509 194.047 466.254 150.766 442.047 110.026C429.733 89.2205 413.179 72.1186 392.577 59.2254C359.036 38.3679 323.037 37.152 286.855 42.4696C263.368 45.8003 241.58 53.8179 220.665 63.4376C211.176 67.856 201.811 73.0591 193.227 80.885C204.628 82.8622 214.791 83.4306 224.941 85.3422C259.338 91.7792 289.405 107.432 315.19 130.819C350.317 162.617 369.53 201.751 374.859 246.417C381.498 303.141 367.443 354.43 339.565 401.988C334.918 409.914 329.385 417.582 323.827 425.991ZM90.1326 103.667C93.3519 104.755 95.4017 104.155 97.1111 103.007C106.057 96.933 116.306 93.9337 126.851 91.0207C132.966 89.3608 139.081 87.7009 145.162 86.1807C155.126 83.6969 161.956 76.5571 169.956 71.1056C193.659 54.6648 219.485 41.8367 248.193 34.0405C282.504 24.7344 317.042 22.2308 353.324 31.3131C372.756 36.0811 390.534 43.0613 407.532 53.8557C435.092 71.3225 454.992 94.7893 470.14 122.109C492.73 162.977 498.881 206.236 497.21 250.358C497.011 253.742 497.29 257.117 497.42 260.448C501.713 253.317 503.126 245.646 505.131 238.147C513.495 206.754 511.946 174.418 501.951 142.912C492.227 112.233 473.812 85.3074 447.249 63.7902C423.335 44.3924 396.611 30.6123 366.837 23.4274C334.07 15.5197 301.348 14.5111 268.743 18.1771C213.449 24.5083 162.815 40.8808 119.972 73.8956C108.938 82.6541 98.8374 92.1335 90.1326 103.667ZM134.27 418.172C131.357 411.335 125.572 406.504 121.28 400.762C96.7528 367.114 83.4657 330.307 78.4812 290.681C73.5069 251.657 79.7519 214.707 91.7544 178.837C99.1691 156.449 110.77 135.731 124.791 116.766C125.943 115.306 128.678 113.858 126.394 111.545C124.633 109.685 122.979 111.897 121.372 112.626C104.719 119.746 90.3259 129.92 77.659 142.094C66.0412 153.227 55.5721 164.844 52.4462 182.046C38.3467 258.62 56.3671 328.992 109.08 393.013C116.668 402.111 124.836 410.78 134.27 418.172ZM25.7546 234.44C15.6406 277.447 20.9966 319.427 46.5141 359.351C69.1596 394.845 96.9021 425.09 138.123 441.151C70.9857 385.498 33.533 316.795 25.7546 234.44ZM410.027 404.869C408.899 405.588 407.623 406.264 406.642 407.026C383.396 422.253 358.595 434.781 332.433 445.116C317.671 450.991 301.3 453.103 286.948 459.247C270.876 465.938 255.089 472.113 237.229 473.192C237.081 473.149 237.057 473.89 236.816 474.868C271.485 482.133 304.385 478.553 335.174 465.525C365.815 452.455 393.061 434.502 410.027 404.869ZM130.835 136.642C126.068 141.838 121.573 147.863 120.194 155.394C123.767 149.251 127.375 142.968 130.835 136.642ZM140.915 119.522C141.438 119.974 141.813 120.382 142.301 120.974C145.905 116.636 149.475 112.437 153.08 108.099C148.464 111.394 143.553 114.603 140.915 119.522Z" fill="#F5F8FF"/>
</svg>
