<svg width="246" height="15" viewBox="0 0 246 15" fill="none" xmlns="http://www.w3.org/2000/svg">
<path d="M12.5091 10.3455C1.07094 8.61266 2.921 9.75049 3.16928 9.05539C2.3562 8.7388 1.54108 8.52219 0.261909 8.09611C1.21033 7.51526 1.80157 7.22722 2.51185 6.84157C2.39686 6.73922 2.16686 6.5345 2.0539 6.33216C2.17296 6.23456 2.41109 6.03936 2.52811 6.04174C6.03484 6.31306 9.56598 5.38463 13.0727 5.65596C16.6965 5.92966 20.3223 6.10339 23.9562 5.8772C26.8879 5.63673 29.6986 5.59385 32.6263 5.55334C33.5626 5.57237 34.2525 6.18653 35.3159 5.70804C36.1432 5.32478 37.4244 5.65088 38.4777 5.67229C39.648 5.69608 40.8182 5.71987 41.9885 5.74366C43.0417 5.76507 44.095 5.78648 45.1482 5.80789C46.2014 5.8293 47.2547 5.85071 48.3079 5.87212C48.425 5.8745 48.427 5.77452 48.7842 5.48172C47.733 5.36033 46.9158 5.2437 46.0986 5.12707C46.1007 5.02709 46.1027 4.9271 46.1047 4.82712C47.158 4.84854 48.3303 4.77235 49.3835 4.79376C50.5538 4.81755 51.7241 4.84134 52.8943 4.86513C53.1284 4.86989 53.3624 4.87464 53.4774 4.977C54.6192 6.4005 55.9106 6.22671 57.5632 5.56016C58.1544 5.27211 59.0846 5.59108 59.7867 5.60536C69.734 5.80757 79.7983 6.01215 89.7456 6.21436C90.7988 6.23577 92.0759 6.76184 93.0325 5.78107C93.0325 5.78107 93.2665 5.78583 93.3835 5.78821C94.3015 6.70706 95.2641 5.42636 96.0752 5.84293C96.9992 6.46183 97.5864 6.37375 98.5327 5.89288C98.7708 5.69768 99.4669 6.0119 99.931 6.22137C100.51 6.53321 100.504 6.83315 99.9127 7.1212C100.028 7.22355 100.141 7.42588 100.258 7.42826C100.492 7.43302 100.726 7.43777 100.843 7.44015C101.083 7.14497 101.091 6.74506 101.329 6.54986C101.686 6.25706 102.161 5.96663 102.629 5.97615C103.331 5.99042 104.257 6.50935 104.846 6.32129C105.673 5.93802 106.256 6.0499 107.07 6.36649C107.651 6.57834 108.48 6.09509 109.299 6.11175C112.225 6.17122 115.268 6.23307 118.193 6.29254C118.536 6.6996 118.764 7.0043 118.99 7.40898C119.347 7.11617 119.821 6.82575 120.534 6.34012C121.827 6.06635 123.913 7.10898 125.237 5.33552C125.58 5.74257 125.925 6.04965 126.27 6.35672C128.857 5.80918 131.199 5.75678 133.643 6.50659C136.238 5.55914 138.794 6.51129 141.377 6.1637C141.367 6.6636 141.12 7.25871 141.237 7.26109C142.167 7.58006 142.067 6.77785 142.311 6.28271C143.364 6.30412 144.534 6.32791 145.705 6.3517C145.83 5.95416 146.07 5.65898 146.193 5.36142C146.308 5.46378 146.542 5.46855 146.657 5.57091C147.226 6.38263 148.273 6.70397 149.098 6.42068C150.987 5.65891 152.968 6.09927 154.96 6.03974C156.6 5.97306 158.354 6.10873 160 5.74212C158.949 5.62073 158.015 5.50171 156.964 5.38032C159.308 5.22794 161.788 4.17813 163.507 6.01344C164.681 5.83727 165.739 5.65873 166.675 5.67776C169.718 5.73961 172.76 5.80146 175.803 5.86332C176.047 5.36818 176.17 5.07062 176.297 4.5731C176.751 5.28247 177.209 5.79188 177.667 6.30129C177.915 5.60619 178.4 4.81587 179.326 5.3348C180.25 5.95371 180.843 5.56569 181.783 5.38476C183.428 5.11813 185.179 5.35378 186.824 5.08714C186.007 4.97051 185.189 4.85388 184.372 4.73724C184.493 4.53966 184.614 4.34209 184.731 4.34447C187.072 4.39205 189.415 4.33965 191.753 4.48721C193.506 4.62287 195.133 5.25605 196.892 5.09177C197.126 5.09653 197.479 5.00368 197.719 4.7085C196.902 4.59187 195.968 4.47286 195.149 4.45621C197.845 4.31097 200.433 3.66345 203.107 4.61798C204.269 5.04168 205.796 4.77267 207.207 4.50128C206.624 4.38941 206.041 4.27753 205.459 4.06567C205.579 3.96807 205.702 3.67052 205.702 3.67052C206.755 3.69193 207.808 3.71334 208.861 3.73475C209.422 4.9464 210.278 3.16342 211.198 3.98228C211.773 4.49408 212.967 3.31811 214.119 4.24171C214.694 4.7535 216.341 4.3869 217.519 4.01078C216.702 3.89414 215.885 3.77751 215.068 3.66088C215.306 3.46568 215.427 3.26809 215.544 3.27047C217.182 3.30377 218.704 3.3347 220.342 3.368C223.504 3.33225 226.547 3.39412 229.599 2.95607C231.244 2.68944 232.882 2.72274 234.408 2.55371C235.814 2.48228 237.112 2.00855 237.727 0.52075C238.312 0.532644 239.487 0.356476 239.6 0.558812C240.047 1.56812 241.45 1.69666 241.784 2.50363C242.119 3.3106 242.583 3.52007 243.277 3.93426C244.785 4.66504 245.107 6.07189 244.259 7.45495C244.719 7.86438 245.062 8.27144 245.524 8.58089C245.52 8.78085 245.516 8.98081 245.397 9.07841C244.203 10.2544 242.788 10.7257 240.912 10.8876C237.746 11.1233 234.687 11.8613 231.529 11.6971C229.636 12.6588 227.659 12.0185 225.666 12.178C224.142 12.2471 222.615 12.5161 221.091 12.5851C219.568 12.6542 217.938 12.221 216.642 12.5947C214.758 13.1565 212.887 13.0185 211.134 12.8828C208.797 12.6353 206.673 13.4923 204.334 13.3447C201.994 13.2971 199.544 12.8473 197.311 13.302C192.964 14.0138 188.651 13.1259 184.427 13.5402C179.149 14.033 173.895 13.3261 168.734 13.8213C161.813 14.4808 154.803 13.7382 147.895 13.7978C147.076 13.7811 146.139 13.7621 145.32 13.7454C144.618 13.7311 143.803 13.5145 143.321 14.2049C142.988 13.2979 142.148 14.2811 141.454 13.8669C141.109 13.5598 140.044 14.1383 139.225 14.1216C138.403 14.2049 137.469 14.0859 136.65 14.0693C135.948 14.055 135.129 14.0383 134.427 14.0241C133.607 14.0074 132.671 13.9884 131.852 13.9717C131.033 13.9551 130.097 13.9361 129.277 13.9194C128.575 13.9051 127.756 13.8885 127.054 13.8742C126.235 13.8575 125.296 13.9385 124.479 13.8219C123.428 13.7005 122.486 13.9814 121.445 13.3601C120.983 13.0506 119.798 13.7267 118.862 13.7077C116.168 13.7529 113.596 13.6006 110.904 13.5459C109.968 13.5269 108.806 13.1032 107.968 13.9863C107.371 14.5743 107.052 12.9675 106.215 13.8507C105.975 14.1458 104.571 14.1173 104.458 13.915C103.661 12.7985 102.69 14.4791 102.119 13.7674C101.32 12.751 100.711 13.9388 100.011 13.8246C99.6595 13.8174 99.1934 13.7079 98.8443 13.6008C98.1442 13.4866 97.0991 13.0652 96.861 13.2604C96.0235 14.1436 94.9886 13.2224 94.0442 13.6033C93.0999 13.9841 91.7017 13.6557 90.6484 13.6343C69.8176 13.2108 48.9869 12.7874 28.1561 12.3639C25.3475 12.3068 22.551 11.6498 19.8371 12.6949C18.4531 11.6666 17.0264 12.7378 15.6221 12.7092C11.1791 12.4189 6.73005 12.4285 1.93195 12.3309C2.05711 11.9334 2.18635 11.3359 2.4204 11.3406C4.64797 11.1859 6.88163 10.7312 9.22013 10.8787C13.8992 11.0739 18.5823 11.0691 23.2633 11.1642C23.3804 11.1666 23.6185 10.9714 23.7376 10.8738C23.5055 10.769 23.2735 10.6643 23.1585 10.562C22.5754 10.4501 22.1195 9.8407 21.4031 10.5263C21.282 10.7239 20.5839 10.5096 20.1158 10.5001C13.9093 10.574 7.70691 10.4479 12.5091 10.3455C23.6286 10.4715 23.6266 10.5715 23.6246 10.6714C24.5567 10.8904 25.6039 11.2118 26.536 11.4308C27.1191 11.5426 30.3979 11.5093 30.9831 11.5212C31.4512 11.5307 32.0322 11.7425 32.1533 11.545C32.9908 10.6618 34.1529 11.0855 35.0891 11.1045C50.1856 11.4114 65.282 11.7183 80.3785 12.0252C81.3147 12.0442 82.2591 11.6633 83.062 12.4798C83.177 12.5822 83.7601 12.694 83.8791 12.5964C84.8336 11.7157 86.1108 12.2417 87.1661 12.1632C89.3936 12.0084 91.724 12.5559 93.9638 11.8012C94.553 11.6132 95.6001 11.9345 96.2982 12.1488C97.8135 12.4796 99.3307 12.7105 100.864 12.1416C101.336 11.9511 102.022 12.7652 102.507 11.9749C103.308 12.8914 104.716 12.72 105.424 12.4343C106.605 11.9582 107.404 12.9746 108.465 12.5961C108.701 12.5009 108.933 12.6056 109.054 12.4081C109.532 11.9177 109.998 12.0272 110.695 12.3414C111.391 12.6556 112.442 12.777 113.148 12.5913C114.09 12.3104 115.148 12.1319 115.848 12.2461C116.897 12.4675 117.839 12.1866 118.892 12.208C126.737 12.1674 134.451 12.8243 142.308 12.1839C148.172 11.7029 154.007 12.6217 159.989 12.0432C165.387 11.4528 170.869 12.4644 176.385 11.7764C180.727 11.2645 185.158 12.1548 189.504 11.4429C191.502 11.0835 193.715 11.6286 195.826 11.4714C197.817 11.4119 199.684 11.7499 201.685 11.1904C203.57 10.6286 205.9 11.1761 208.009 11.1189C208.36 11.1261 208.713 11.0332 208.949 10.938C208.489 10.5286 208.138 10.5215 207.787 10.5143C204.04 10.5382 200.297 10.3621 196.542 10.7858C191.966 11.2929 187.418 10.4003 182.723 11.005C178.379 11.6169 173.956 10.3267 169.604 11.3384C169.015 11.5265 168.454 10.3149 167.848 11.3028C167.164 10.3887 166.559 11.3766 165.857 11.3623C160.589 11.3552 155.333 10.7483 150.165 11.5434C149.461 11.6291 148.406 11.7077 148.061 11.4006C147.139 10.6817 146.648 11.772 145.95 11.5578C145.252 11.3435 144.429 11.5268 143.727 11.5126C139.514 11.4269 135.184 11.3389 130.971 11.2533C129.917 11.2319 128.638 10.8058 127.684 11.6866C127.565 11.7842 126.986 11.4723 126.637 11.3652C126.171 11.2557 125.355 11.0391 125.236 11.1367C124.637 11.8247 124.298 11.2176 123.832 11.1082C123.366 10.9987 122.769 11.5866 122.183 11.5747C121.247 11.5557 120.303 11.9366 119.502 11.0201C118.905 11.6081 117.971 11.4891 117.268 11.4748C116.449 11.4582 115.509 11.6391 114.938 10.9274C114.337 11.7153 113.406 11.3963 112.587 11.3797C107.321 11.2726 101.94 11.0632 96.6716 11.0561C91.4034 11.0491 86.1514 10.2422 80.9799 11.2373C80.4049 10.7255 79.4626 11.0064 78.7625 10.8921C77.8283 10.7731 76.884 11.154 75.9477 11.135C74.8945 11.1136 73.6011 11.3873 72.6812 10.5685C71.6076 11.5468 70.2134 11.0184 69.0432 10.9946C55 10.7091 40.9567 10.4237 26.9135 10.1382C25.7392 10.3144 24.686 10.293 12.5091 10.3455Z" fill="black"/>
</svg>
