<svg width="512" height="504" viewBox="0 0 512 504" fill="none" xmlns="http://www.w3.org/2000/svg">
<path d="M0 317.216C0.61244 293.069 3.98086 269.355 12.8612 246.798C22.201 223.085 26.9474 198.649 32.6124 174.212C43.177 129.677 61.244 88.3232 95.2345 54.7773C123.56 26.5815 157.856 8.36259 198.737 2.72342C228.593 -1.46981 258.297 0.120726 287.235 8.79638C290.297 9.66394 293.359 10.5315 296.574 9.95313C324.9 5.47071 351.694 10.2423 377.723 20.7977C409.569 33.6666 437.589 51.5963 461.014 75.7435C478.928 94.2515 493.168 115.362 501.435 139.076C510.928 166.259 515.062 194.022 509.244 222.651C507.866 229.447 508.479 236.821 506.335 243.039C503.732 250.702 502.66 258.655 500.057 266.174C495.464 279.043 493.933 292.49 490.871 305.504C486.89 321.987 480.306 337.604 472.498 352.786C461.627 373.752 448 393.272 430.392 409.611C414.775 424.071 398.546 438.241 379.101 448.796C365.168 456.46 351.847 465.136 337.455 471.932C290.756 494.054 241.608 505.622 189.091 502.585C148.517 500.272 111.311 488.56 78.3924 465.714C32.4593 433.903 7.19617 390.814 1.5311 337.314C0.76555 330.663 0.45933 323.867 0 317.216ZM73.7991 92.3718C71.6555 92.3718 70.89 94.1069 70.1244 95.4083C62.3158 107.988 55.2727 120.857 50.5263 134.738C48.9952 139.51 44.4019 143.558 45.6268 149.342C48.5359 147.896 49.9139 145.872 50.067 143.124C50.3732 138.353 52.823 134.304 54.9665 130.111C61.244 117.531 67.3684 104.807 73.6459 92.2272C82.5263 81.2381 91.4067 70.2489 100.287 59.1152C94.1627 64.1759 88.3445 69.3813 83.7512 75.8881C80.0766 81.2381 74.7177 85.5759 73.7991 92.3718ZM245.129 41.6193C231.196 43.7882 220.478 47.9814 211.139 55.0665C201.646 62.2962 195.981 72.1286 189.703 81.8164C181.282 95.2637 175.464 109.723 171.024 124.327C167.043 137.196 164.287 150.788 162.756 164.38C158.928 196.624 158.316 228.58 168.115 260.101C178.373 293.069 195.215 321.987 222.775 344.833C267.636 381.849 323.215 388.212 375.732 365.944C379.101 364.498 382.316 362.763 384.306 359.582C397.168 339.049 406.354 317.071 412.019 294.081C419.828 262.993 420.9 231.182 416.459 199.372C410.029 153.824 392.727 112.76 359.196 78.9246C341.895 61.2841 322.909 45.3787 296.574 40.6071C288.766 39.1612 280.038 36.4139 273.608 42.4868C266.718 49.2827 260.134 56.8016 255.388 65.0435C235.636 100.18 231.502 137.196 243.598 175.369C248.191 190.262 258.144 201.685 272.077 210.071C274.679 211.662 280.191 212.674 278.354 216.434C276.67 219.615 271.617 218.747 267.943 217.735C266.565 217.301 265.187 216.723 263.962 216C248.345 206.89 235.636 195.034 228.593 178.839C213.742 144.426 215.426 109.434 226.909 74.5867C230.737 63.1638 237.014 52.8976 245.129 41.6193ZM155.1 89.4799C153.416 90.0583 152.498 90.3475 151.885 90.7813C132.44 105.964 115.445 123.17 99.3684 141.245C86.9665 155.126 76.555 170.308 66.9091 185.924C60.3254 196.624 54.0479 207.613 52.6699 220.193C49.1483 250.992 49.7608 281.646 56.3445 312.155C65.6842 355.678 82.9857 395.441 116.057 427.975C132.9 444.603 152.957 456.46 175.923 463.111C213.282 473.811 248.345 464.846 282.029 449.519C303.923 439.687 323.062 425.806 340.976 410.624C349.091 403.683 356.9 396.02 363.33 386.043C351.847 387.344 341.895 389.657 331.636 390.67C296.88 394.14 264.115 387.489 233.646 372.162C192.153 351.34 164.287 318.951 148.517 277.308C128.612 224.386 129.99 170.886 145.608 117.097C148.211 108.133 151.732 99.1677 155.1 89.4799ZM457.493 335.001C454.124 334.856 452.287 336.013 450.909 337.604C443.713 345.99 434.526 351.774 425.034 357.558C419.522 360.883 414.01 364.209 408.498 367.39C399.464 372.595 394.565 381.416 388.134 388.935C369.148 411.491 347.254 431.156 321.378 446.772C290.45 465.425 257.684 477.571 220.478 479.017C200.574 479.884 181.742 478.149 162.756 472.51C131.981 463.4 107.177 446.338 86.0479 424.215C54.5072 391.103 38.2775 351.051 29.3971 307.962C28.7847 304.636 27.7129 301.455 26.7943 298.274C24.3445 306.371 24.8038 314.179 24.6507 321.987C24.0383 354.666 33.2249 385.464 50.3732 413.082C67.0622 439.976 91.2536 460.798 122.029 474.1C149.742 486.102 178.833 491.886 209.301 490.44C242.833 488.849 274.679 480.607 305.301 467.883C357.206 446.194 402.22 416.118 435.751 372.162C444.325 360.594 451.828 348.593 457.493 335.001ZM340.057 43.6436C344.498 49.4273 351.235 52.4638 356.746 56.8016C388.44 82.3948 410.029 114.206 424.268 151.077C438.354 187.37 441.11 224.82 438.048 262.848C436.211 286.562 429.933 309.841 420.9 332.109C420.134 333.844 417.837 336.013 420.593 337.604C422.737 338.905 423.809 336.302 425.187 335.145C439.579 323.578 451.062 309.697 460.402 294.37C468.976 280.344 476.325 266.174 475.254 248.678C470.66 170.742 436.517 107.843 370.373 60.8503C360.88 54.199 350.928 48.126 340.057 43.6436ZM488.574 190.551C488.115 146.161 472.957 107.12 438.813 75.7435C408.498 47.8368 374.507 26.4369 330.871 22.5328C408.957 57.38 461.474 113.193 488.574 190.551ZM76.8613 134.16C77.7799 133.147 78.8517 132.135 79.6172 131.123C98.4498 109.868 119.426 90.7813 142.239 73.43C155.101 63.5976 170.412 56.9462 182.813 46.9692C196.746 35.9801 210.526 25.5693 227.522 19.4963C227.675 19.4963 227.522 18.7734 227.522 17.7612C192.306 20.5085 161.378 33.2328 134.737 54.4881C108.249 75.7435 86.201 100.758 76.8613 134.16ZM410.335 314.613C413.703 308.251 416.612 301.166 416.153 293.502C414.163 300.443 412.172 307.528 410.335 314.613ZM404.67 333.989C404.057 333.699 403.598 333.41 402.986 332.977C400.536 338.182 398.086 343.243 395.636 348.448C399.311 343.966 403.292 339.483 404.67 333.989Z" fill="#FCE5E7" fill-opacity="0.6"/>
</svg>
