<svg width="289" height="250" viewBox="0 0 289 250" fill="none" xmlns="http://www.w3.org/2000/svg">
<path d="M260.7 199.013C258.8 200.513 258 202.613 257.6 204.913C257.4 206.213 256.2 206.413 255.3 206.613C254.5 206.813 253.8 206.813 253.2 207.513C252.9 207.813 252.1 207.813 251.8 207.613C250.7 206.913 249.5 206.413 248.5 205.613C245 202.513 242.4 198.613 239.9 194.713C237.4 190.713 234.8 186.713 232.9 182.413C232.3 181.013 232.3 181.113 233.8 180.013C235 182.313 236.1 184.613 237.4 186.913C238.4 188.713 239.7 190.313 241 192.213C241.3 191.513 241.3 191.013 240.8 190.313C238.3 186.713 235.9 183.013 234 178.713C234.3 178.513 234.7 178.313 235 178.013C235.1 178.113 235.3 178.213 235.6 178.513C235.6 177.913 235.6 177.513 235.6 177.013C236.5 176.813 237.3 176.713 238.4 176.413C239.2 176.813 239.6 178.213 241 178.413C241 179.913 242.2 180.613 242.9 181.713C243.7 183.013 244.8 184.213 245.6 185.213C246.5 185.113 247.1 185.013 247.8 184.913C250.1 184.713 250.1 184.813 251.5 186.113C253.1 187.513 254.2 189.513 256.3 190.413C256.4 190.513 256.6 190.713 256.6 190.813C256.7 192.313 257.5 192.813 258.9 193.213C260.1 193.513 260.4 194.713 260.5 195.913C260.4 196.813 260.6 197.713 260.7 199.013Z" fill="black"/>
<path d="M54.5 26.6134C56.2 27.4134 56.2 27.4134 57 25.7134C58.1 25.3134 59.5 26.1134 60.5 25.1134C61.7 25.4134 62.8 25.8134 64 25.9134C65.9 26.2134 66.9 27.6134 67.9 28.8134C68.6 29.6134 69.4 30.5134 70 31.4134C70.8 32.5134 71.7 33.4134 72.5 34.5134C73.2 35.5134 73.8 36.5134 74.4 37.5134C74.6 37.8134 74.8 38.1134 74.8 38.4134C74.7 39.2134 75 39.7134 75.6 40.3134C76.7 41.4134 76.6 43.0134 77 44.3134C77.3 45.6134 77.1 47.0134 77 48.4134C77 48.9134 76.9 50.0134 75.8 49.2134C75.7 49.1134 75.3 49.6134 75.1 49.7134C74.8 49.9134 74.3 50.2134 74.2 50.1134C73 49.0134 72.7 49.8134 72.2 50.8134C71.4 52.3134 70.9 52.2134 68.7 51.8134C67.4 51.6134 66 51.5134 65.2 50.4134C63.1 47.3134 61 44.2134 60.7 40.3134C60.6 38.7134 60.1 37.1134 58.8 35.9134C57.7 34.9134 56.9 33.5134 55.4 33.0134C54.9 32.8134 54.6 32.3134 54.2 31.9134C53.4 31.0134 53 30.1134 53 28.8134C53 27.6134 54 27.3134 54.5 26.6134Z" fill="black"/>
<path d="M231.3 129.913C230 128.613 228.8 127.213 227.5 126.113C223.7 123.013 221.9 118.513 219.6 114.413C218.6 112.513 218.9 110.513 218.9 108.413C218.9 108.113 219.4 107.713 219.7 107.313C220.1 108.113 220.4 108.813 221 109.813C221 108.313 221 107.113 221 106.113C221.8 105.713 222.6 105.513 223.1 105.013C223.8 104.413 224.5 104.513 225.1 104.713C225.8 104.913 226.4 105.513 227.1 105.913C226.7 107.913 227.5 109.513 228.4 111.213C229.3 111.013 230.3 111.613 231.1 110.713C231.3 110.513 231.9 110.513 232.1 110.713C234.2 112.013 236.8 112.613 237.8 115.213C238 115.713 238.2 116.313 238.6 116.513C239.2 116.813 238.7 117.813 239.6 117.813C240.4 117.813 239.9 118.713 240 119.113C240.2 119.713 240.4 120.213 240.5 120.813C240.6 121.313 240.5 121.913 240.5 122.413C238.4 124.213 237.1 126.513 236 129.013C234.6 129.413 232.9 129.613 231.3 129.913Z" fill="black"/>
<path d="M4.1 2.71335C4.6 2.11335 5 1.51335 5.4 1.01335C5.6 0.813349 5.8 0.613349 6.1 0.513349C6.7 0.113349 7.2 1.21335 7.9 0.713349C8.5 0.413349 9.1 0.113349 9.7 0.0133488C10.3 0.0133488 11.1 0.613349 11.4 0.413349C12 -0.0866512 12.4 -0.186651 13 0.413349C13.1 0.513349 13.5 0.413349 13.7 0.413349C15.4 0.0133488 15.4 0.0133488 16.3 1.71335C16.4 1.31335 16.5 1.01335 16.7 0.413349C17 1.11335 17.2 1.71335 17.4 2.21335C17.5 2.91335 17.6 3.61335 17.6 4.31335C17.6 5.01335 17.6 5.71335 18 6.41335C18.1 5.51335 18.2 4.71335 18.3 3.81335C18.4 3.81335 18.5 3.81335 18.6 3.81335C18.7 4.31335 18.7 4.71335 18.7 5.21335C18.7 7.61335 18.6 9.91335 18.7 12.3133C18.8 14.4133 18.5 16.2134 17.3 18.0133C16.9 17.6133 16.4 16.9133 15.9 18.0133C15.4 19.1133 14.5 19.0133 13.3 18.5133C13.1 19.7134 13 21.1133 11 20.7134C11 19.8134 11 18.7134 11 17.7134C10.9 17.7134 10.7 17.6133 10.6 17.6133C10.3 18.6133 10 19.7134 9.6 20.7134C8.7 20.1133 8 19.5133 8.1 18.2134C8.1 17.8134 7.7 17.5133 7.6 17.1133C7 15.4134 7 15.4133 5.6 15.3133C5.3 15.3133 5.1 15.3133 4.8 15.3133C4.5 15.3133 4.3 15.3133 4.1 15.3133C3.4 14.6133 2.8 13.9133 2.1 13.3133C0.7 12.0133 0.2 10.3133 0 8.51335C0.1 7.51335 0.3 6.61335 0.1 5.71335C0 4.71335 0.5 4.01335 0.9 3.31335C1.8 1.91335 2.3 1.91335 4.1 2.71335Z" fill="black"/>
<path d="M163.2 24.3133C162 25.1133 160.9 25.9133 159.7 26.6133C159.6 26.7133 159.2 26.3133 158.7 26.0133C158.4 26.5133 158.3 26.9133 158 27.3133C157.7 27.7133 157.2 28.1133 156.9 28.5133C156.1 29.3133 155.4 30.2133 154.3 29.0133C154.2 28.9133 153.9 29.0133 153.8 29.0133C152.5 28.9133 151.3 29.2133 150 28.2133C149 27.4133 147.7 26.8133 146.7 25.8133C145.8 24.8133 144.8 24.0133 144.2 22.7133C143.2 20.8133 142.3 19.0133 142.6 16.8133C142.7 16.3133 143.1 15.8133 143.4 15.0133C144.1 15.6133 144.5 15.9133 145.1 16.4133C145.5 14.9133 145.5 13.2133 146.8 11.9133C147.3 12.3133 147.9 12.7133 148.5 13.2133C148.5 12.5133 148.5 11.8133 148.5 11.2133C150.3 10.9133 151.9 10.3133 153.7 10.4133C154.7 10.5133 155.6 10.8133 156.3 11.4133C157.1 12.2133 158.2 12.8133 158.8 13.8133C159.4 14.7133 160.3 15.5133 160.9 16.5133C162 18.1133 162.3 19.9133 163.1 21.6133C163.5 22.3133 163.2 23.4133 163.2 24.3133Z" fill="black"/>
<path d="M47.7 76.5134C47.7 78.5134 47.7 80.4134 47.7 82.4134C48.2 80.9134 48.1 79.4134 48.2 77.9134C48.2 77.3134 47.9 76.6133 48.7 76.2133C49.4 75.8133 50.2 75.5134 51 75.3134C51.3 75.3134 51.8 75.9134 52 76.3134C52.2 76.8134 52 77.3134 52 77.9134C52.5 77.7134 52.7 77.5134 53 77.5134C53.5 77.6133 54.2 78.0134 54.4 77.8134C55.8 76.8134 57.4 77.4134 58.8 77.4134C59.5 77.4134 60.5 77.8134 60.8 78.3134C61.6 79.6134 63.2 80.0134 64 81.6133C64 82.3133 64.1 83.1133 64.8 84.0134C65.7 85.2133 66.5 86.6134 66.2 88.3134C66.1 89.1134 66.2 89.9134 66.2 90.9134C64.3 92.0134 62.4 93.1134 60.6 94.3134C58.7 95.6134 56.9 94.7134 55.2 93.8134C54 93.2134 52.4 92.9133 52 91.2133C49.3 90.0134 48.8 87.1133 47.4 85.0134C46.4 83.6133 46.5 81.9134 46.2 80.4134C46 79.1133 46.9 77.7134 47.3 76.3134C47.3 76.4134 47.5 76.4134 47.7 76.5134Z" fill="black"/>
<path d="M100.4 106.013C99.3 104.913 98 103.613 96.7 102.313C96.7 101.413 96.6 100.313 96.7 99.3133C96.8 98.9133 97.3 98.5133 97.7 98.3133C97.9 98.2133 98.3 98.6133 98.6 98.7133C99 97.9133 99.2 96.9133 100.6 97.1133C100.8 97.1133 101.2 97.2133 101.4 97.0133C102.1 96.5133 102.8 95.9133 103.6 96.1133C105.1 96.5133 106.8 96.8133 108 97.8133C110.4 99.9133 112.6 102.213 113.8 105.213C114.5 107.013 115.1 108.913 115.5 110.713C115.6 111.513 115.4 112.713 114.5 113.313C113 114.413 111.5 115.613 109.9 116.613C109.4 117.013 108.6 117.213 108 117.113C104 116.813 101.2 114.913 100 110.413C99.8 109.713 99.4 109.113 99.5 108.513C99.6 107.713 100.1 106.913 100.4 106.013Z" fill="black"/>
<path d="M107.2 204.513C107.1 204.013 107 203.413 106.9 202.913C106.9 205.113 104.6 205.913 104.1 207.713C103.9 208.413 102.9 208.713 102.5 208.313C101.8 207.713 101.4 208.113 101 208.413C100 209.013 99.2 209.013 98.2 208.413C95.3 206.713 92.3 205.113 90.6 202.013C88.5 200.913 87.9 198.613 86.6 196.913C86 196.113 85.8 194.913 85.3 193.813C86.1 192.713 87.2 193.013 88.5 193.713C88.4 193.113 88.4 192.513 88.1 192.113C87.7 191.613 88.1 191.413 88.3 191.313C89.2 190.913 90.2 190.613 91 189.913C91.2 189.713 91.7 189.813 92.1 189.913C92.7 190.113 93.2 190.513 93.9 189.913C94.1 189.713 94.7 190.113 95.1 190.213C98.4 191.613 101.4 193.413 103.3 196.713C103.6 197.113 104.2 197.613 104.6 198.013C105.9 199.213 106.1 200.913 107.1 202.213C107.8 202.913 107.6 203.613 107.2 204.513Z" fill="black"/>
<path d="M272.8 77.4133C272.9 76.9133 272.9 76.4133 273 75.8133C273.2 75.9133 273.4 76.0133 273.4 76.1133C274.1 77.8133 275 79.4133 275.4 81.3133C275.7 82.5133 276 83.6133 274.9 84.4133C274.1 85.0133 274.9 86.8133 273.2 86.7133C272.4 88.0133 271.1 87.9133 269.9 87.8133C269.6 88.7133 269.4 89.5133 269.1 90.3133C268.7 91.1133 267.4 91.4133 266 91.0133C265.7 90.9133 265.4 90.6133 265.1 90.6133C262.8 90.8133 262.8 90.8133 261.9 89.0133C261.4 88.1133 260.8 87.3133 260.5 86.3133C260 85.2133 259.3 84.4133 258.2 84.0133C256.5 83.3133 255.4 81.8133 255.1 80.0133C254.8 78.4133 255.6 76.9133 257 75.8133C257.7 76.7133 258.4 77.6133 259.4 78.9133C259.4 77.6133 259.4 76.7133 259.4 75.8133C259.4 74.9133 259.5 75.1133 260.9 74.5133C261.9 74.1133 263.3 74.6133 263.9 73.2133C264.9 73.2133 265.9 73.1133 266.9 73.1133C268.7 73.0133 270.3 73.2133 271.2 75.2133C271.3 76.0133 272.1 76.6133 272.8 77.4133Z" fill="black"/>
<path d="M3.9 90.6133C1.7 90.1133 0.999997 88.6134 0.799997 87.3134C0.499997 85.6134 -3.1665e-06 83.9134 0.0999968 82.1133C0.299997 79.8133 0.299997 77.4134 0.0999968 75.0134C-3.1665e-06 73.9134 0.699997 73.0134 0.699997 72.0134C0.699997 71.7133 1.1 71.2133 1.3 71.2133C2.7 71.3133 3.4 69.8134 4.8 69.8134C5.8 69.8134 6.7 68.9134 7.8 68.3134C8.9 69.4134 11.2 68.0134 12 70.4134C11.4 72.1133 12.9 73.5134 13.3 75.2133C13.4 75.4133 13.6 75.7134 13.6 75.9134C13.6 78.6133 13.6 81.3133 13.6 84.2133C13.2 83.8133 13 83.6133 12.5 83.2133C12.6 83.8133 12.6 84.3134 12.8 84.5134C13 84.7133 13.5 84.5134 13.8 84.6133C13.9 84.6133 14 85.0134 14 85.3134C14 85.4134 13.8 85.7133 13.7 85.6133C13 85.5134 12.4 85.3134 11.7 85.1133C11.2 86.2133 10.7 87.3134 10.3 88.1133C9.8 88.1133 9.4 88.0134 9 88.0134C9.8 88.8134 8.9 89.1133 8.6 89.5134C8.3 90.0134 8 90.5134 7.8 91.0134C6.1 90.8134 5.4 89.7133 5 88.2133C4.5 89.1133 4.3 89.8134 3.9 90.6133Z" fill="black"/>
<path d="M204.7 216.013C203.3 216.013 202 215.613 201.3 217.113C200.1 215.613 200 214.513 201.2 213.313C202 212.513 202.5 211.413 203.6 210.713C204.5 210.113 204.8 208.713 205.6 207.813C206.2 207.113 207.1 206.713 207.9 206.213C208.1 206.413 208.4 206.713 208.8 207.113C208.4 207.413 207.9 207.713 207.5 208.013C207.5 208.113 207.6 208.213 207.6 208.313C208.2 208.213 208.8 208.113 209.5 208.013C209.7 208.313 209.9 209.013 210.4 209.213C213.2 210.613 215 213.113 216.6 215.513C217.2 216.313 217.3 217.413 217.8 218.313C218.9 220.513 219.2 220.913 218.9 223.013C218.7 224.513 218.4 226.013 217.2 227.213C216.7 227.713 216.3 228.313 216.2 229.013C216.1 230.513 215.3 230.813 214.1 230.713C213.8 230.713 213.4 230.713 213.1 230.813C211 231.413 210.7 231.313 209.7 229.713C208.1 227.313 207.4 224.513 206.4 221.813C205.7 219.913 205.2 217.913 204.7 216.013Z" fill="black"/>
<path d="M170 186.113C168.5 185.213 167 184.513 165.7 183.213C163.4 180.913 160.9 178.713 158.8 176.213C156.6 173.613 154.2 171.013 152.9 168.013C153 166.813 154.6 168.113 154.6 166.713C154.6 166.313 155.6 165.913 156.2 165.513C157.6 164.513 158.3 164.413 159.3 165.413C160.3 166.413 161.4 166.813 162.7 167.113C164.7 167.513 166.1 169.113 167.8 170.013C169.6 171.013 170.9 172.613 172.4 174.013C173.2 174.713 174.1 175.313 174.8 176.113C175.5 176.913 176.1 177.913 176.3 178.913C176.4 179.513 176 180.413 175.5 181.013C174.9 181.713 174.7 182.613 173.7 183.013C173.1 183.213 173.2 183.813 173.1 184.413C173 185.013 172.8 185.813 171.7 185.013C170.9 184.413 170.3 185.213 170 186.113Z" fill="black"/>
<path d="M279.8 170.313C276.7 169.013 275.4 166.613 274 164.313C272.8 162.313 271.8 160.113 270.9 158.013C270 155.813 268.5 153.813 269.2 151.013C271.2 152.413 271 155.013 272.9 156.713C272.6 153.913 271.1 151.813 270.4 148.913C271.4 149.413 271.8 149.613 272.2 149.913C272.3 149.413 272.4 148.913 272.5 148.413C273.3 148.213 274.1 148.113 275.1 147.913C275.4 148.313 275.7 148.913 276.1 149.513C277.6 151.713 277.7 151.713 280.5 152.713C280.8 152.813 281.1 153.013 281.4 153.213C283.6 154.613 285.5 156.113 286.7 158.513C287.1 159.413 287.7 161.013 287.7 161.913C287.7 162.113 287.9 162.413 288 162.613C288.4 163.113 288.2 163.513 287.8 163.713C286.6 164.413 286 165.813 285 166.613C284.5 166.913 284.5 167.413 284.4 168.013C284.3 168.813 282.8 169.813 282 169.613C281.6 169.513 281.3 168.713 280.7 169.313C280.3 169.613 280.1 170.013 279.8 170.313Z" fill="black"/>
<path d="M191.5 106.813C191 106.913 190.5 107.013 189.8 107.113C190.1 107.613 190.3 108.013 190.5 108.413C189.2 109.713 187.9 111.013 186.5 112.413C186.3 112.413 186 112.413 185.7 112.413C182.6 113.013 180.6 111.213 178.9 109.113C177.6 107.513 176.4 105.713 175.5 103.713C174.9 102.513 174.5 101.313 174.8 99.7133C175.7 101.713 176.6 103.613 177.4 105.413C177.5 105.413 177.7 105.313 177.8 105.313C177.7 105.013 177.7 104.613 177.6 104.313C177 103.013 176.4 101.713 175.9 100.413C175.7 99.8133 175.2 99.1133 176.4 98.8133C176.8 98.7133 177 97.9133 177.3 97.4133C177.6 97.0133 177.8 96.5133 178 96.2133C179.3 96.1133 179.3 97.2133 180.1 97.7133C179.9 97.0133 179.7 96.3133 179.5 95.4133C179.9 95.1133 180.5 94.6133 181 94.2133C181.3 94.5133 181.8 95.1133 182.2 94.1133C182.7 93.0133 183.3 92.6133 184.4 93.3133C184.5 93.4133 184.7 93.4133 184.8 93.4133C186.1 92.4133 186.8 93.4133 187.4 94.2133C188.8 96.1133 189.5 98.4133 190.3 100.613C190.5 101.113 190.9 102.313 189.5 102.413C189.4 102.413 189.4 102.913 189.3 103.113C189.6 103.213 190.1 103.413 190.2 103.313C191 102.513 191.5 103.513 191.4 103.713C191 104.513 192.1 105.613 191.5 106.813Z" fill="black"/>
<path d="M181.6 48.6134C181.9 48.9134 182.2 49.2134 182.7 49.7134C182.8 48.9134 182.9 48.3134 182.9 47.6134C184 47.4134 185.2 47.1134 186.4 46.9134C187.1 46.8134 187.9 46.8134 188.6 46.9134C189.1 47.0134 188.7 48.0134 189.7 48.1134C190.4 48.2134 190.9 49.3134 191.3 50.0134C191.7 50.6134 191.1 52.0134 192.5 51.9134C192.5 52.8134 192.6 53.7134 192.6 54.6134C192.6 54.7134 192.6 54.8134 192.6 54.9134C193.9 56.2134 195.3 57.6134 196.7 59.0134C197.1 59.0134 197.6 58.9134 198 59.0134C198.7 59.1134 199.4 59.8134 199.1 60.2134C198.3 61.1134 199.7 61.8134 199.2 62.5134C197.1 63.1134 196.4 63.2134 194.7 62.9134C195.1 63.8134 195.5 64.6134 196 65.7134C195.7 66.0134 195.4 66.6134 195 66.6134C192.8 66.6134 190.4 67.2134 188.4 65.6134C187.9 65.2134 187.2 64.8134 186.8 64.3134C185.8 63.1134 185 61.8134 184.1 60.5134C183.7 59.9134 183.3 59.2134 182.9 58.6134C182.3 57.6134 182.4 56.2134 181.3 55.5134C181.5 54.3134 180.8 53.4134 180.4 52.4134C179.7 50.7134 180.1 49.4134 181.6 48.6134Z" fill="black"/>
<path d="M97.4 8.11334C98.5 8.11334 99.2 8.11334 99.9 8.11334C100.9 8.11334 101.9 7.91334 102.1 9.31334C102.1 9.51334 102.5 9.71334 102.7 9.71334C103.9 9.51334 104.2 10.6133 104.9 11.1133C106.8 12.4133 107.1 14.5133 107.6 16.5133C107.9 17.6133 107.5 18.4133 106.2 19.2133C104.8 20.1133 103 20.6133 102 22.2133C101.1 22.2133 100.4 23.6133 99.4 22.5133C99.3 22.3133 98.9 22.3133 98.7 22.3133C95.3 22.4133 93.1 20.4133 91.3 17.8133C90.4 16.5133 89.2 15.3133 88.9 13.6133C88.8 12.9133 88.7 12.2133 88.6 11.5133C88.6 11.3133 88.7 10.9133 88.9 10.8133C90.3 10.3133 91.3 9.11334 92.6 8.61334C94.2 8.11334 96 8.01334 97.4 8.11334Z" fill="black"/>
<path d="M93.1 140.413C93.5 141.013 93.8 141.513 94.4 142.413C94.5 141.513 94.6 141.113 94.6 140.813C94.7 139.713 94.7 139.713 96.1 139.613C96.3 139.613 96.5 139.613 96.6 139.513C97.2 138.513 98.2 138.213 99.2 138.513C100.3 138.813 101.5 139.313 102.4 140.013C105.8 142.813 107.8 146.713 109.3 150.713C109.6 151.413 109.3 152.313 109.3 153.013C108.9 153.013 108.6 152.913 108.3 152.913C108.4 153.913 108.1 154.613 107 154.813C106.7 154.913 106.2 155.413 106.2 155.713C106.1 156.913 104.9 156.313 104.5 156.913C103.8 155.813 102.7 157.113 101.9 156.413C101.2 155.713 100.2 155.113 99.7 154.213C98.6 152.313 97.6 150.313 97 148.313C96.7 147.213 96.2 146.513 95.4 146.113C94.1 145.313 93 144.313 92.4 142.913C91.7 141.813 91.6 141.813 93.1 140.413Z" fill="black"/>
<path d="M144.2 108.713C144.2 108.413 144.1 108.113 144.2 107.713C144.3 107.513 144.6 107.313 144.7 107.113C144.7 106.913 144.5 106.613 144.5 106.313C144.5 106.113 144.8 105.813 144.8 105.613C144.7 105.313 144.4 105.013 144.2 104.813C144 104.713 143.7 104.713 143.4 104.613C143.6 105.213 143.7 105.713 143.8 106.113C142.8 105.513 141.8 105.013 142.2 103.613C142.6 103.813 143 103.913 143.5 104.113C143.7 102.413 142.1 103.313 141.5 102.513C142.4 102.613 143 102.013 143.9 102.113C144.3 102.213 144.9 101.313 145.5 100.713C146.4 101.413 147.4 102.213 148.5 103.213C148.6 102.513 148.7 102.013 148.8 101.413C150.1 101.113 151.5 100.913 152.8 100.613C153.5 101.513 154 102.313 154.7 103.013C155.3 103.613 156.1 104.013 156.6 104.613C158.2 106.313 158.9 108.613 159.5 110.713C159.7 111.513 160 112.713 158.5 112.913C158.5 114.313 157 114.513 156.3 115.513C155.4 116.613 153.9 116.813 152.3 116.213C149.9 115.213 148.2 113.313 146.7 111.413C145.8 110.713 144.9 109.813 144.2 108.713Z" fill="black"/>
<path d="M189.1 144.113C189.5 144.213 190 144.413 190.5 144.613C190.6 142.313 188.2 141.713 187.9 139.613C188.4 139.813 188.8 139.913 189.1 140.113C189.6 140.513 189.9 140.913 190.5 141.513C190.3 140.413 190.2 140.113 189.5 139.313C190.9 137.613 190.9 137.613 192.6 137.613C193.5 138.613 194.3 140.013 195.5 140.813C196.8 141.613 197.2 143.013 198.2 144.013C199.1 144.913 199.7 146.213 200.4 147.413C200.7 148.113 201 148.913 200.9 149.613C200.8 150.513 200.4 151.813 199.8 152.013C198.8 152.413 199 153.113 198.7 153.813C198.3 154.613 197.7 155.513 196.6 155.713C196 155.813 195.2 156.313 194.7 156.113C193.5 155.613 192.4 154.913 191.5 154.013C189.9 152.313 188.5 150.413 187.1 148.513C186.8 148.013 186.9 147.213 186.8 146.213C187.3 146.613 187.4 146.713 187.8 147.013C187.5 145.413 188.7 144.913 189.1 144.113Z" fill="black"/>
<path d="M174.8 244.113C174.1 243.713 173.7 243.513 173.3 243.313C172.7 245.513 172.5 245.613 170.7 244.813C171.2 245.913 171.6 246.813 172 247.813C171.5 248.113 171 248.413 170.6 248.613C169.7 247.713 168.8 246.813 167.8 245.813C167.2 247.113 168.8 247.713 168.7 249.013C167.2 249.213 166.4 248.213 165.6 247.313C165.1 246.813 164.9 246.113 164.4 245.613C162.3 243.513 160.4 241.213 158.6 238.713C158.4 238.513 158.2 238.313 158 238.113C156.9 237.113 155.8 236.113 155.7 234.513C156.8 233.913 157.3 234.913 158 235.513C158.7 234.313 157 234.113 157.1 233.213C157.2 232.113 159.2 233.513 158.7 231.713C159.8 231.713 160.7 231.713 161.7 231.713C162.5 232.313 163.4 232.913 164.2 233.513C165 234.113 165.6 235.013 166.6 235.513C167.6 236.013 168.3 237.113 169.1 237.913C169.7 238.413 170 239.113 171 239.313C171.7 239.513 172 240.513 173 240.313C173.3 240.313 173.8 240.813 173.9 241.113C174.4 242.113 174.5 242.813 174.8 244.113Z" fill="black"/>
<path d="M156 61.7134C156.9 61.8134 157.6 61.3134 158.4 61.9134C158 62.1134 157.6 62.2134 157.3 62.3134C157.6 63.4134 158 64.5134 158.2 65.6134C158.3 65.9134 158.1 66.4134 157.9 66.5134C156.8 67.0134 156.5 68.1134 155.6 68.8134C155.2 69.1134 154.7 69.2134 154.2 69.2134C154 69.2134 153.7 68.9134 153.4 68.9134C153.1 68.9134 152.8 69.2134 152.5 69.4134C152 67.7134 152.1 67.7134 150.2 67.1134C149.1 66.7134 148.9 65.6134 148.1 65.0134C147.9 65.4134 147.8 65.7134 147.6 66.1134C147.3 65.8134 146.9 65.5134 146.9 65.3134C146.9 62.1134 146.9 62.0134 145.4 60.0134C144.6 61.5134 146.2 62.3134 146.3 63.8134C145.9 63.7134 145.3 63.8134 145.2 63.6134C144.5 61.9134 143.4 60.3134 144.5 58.3134C144.8 57.7134 144.9 57.3134 145.7 57.3134C146.2 57.3134 146.7 57.0134 147.1 56.8134C148.2 56.1134 149.2 55.4134 150.4 54.6134C150.7 55.0134 150.9 55.4134 150.8 55.3134C151.7 55.9134 152.7 54.2134 152.8 56.0134C152.8 56.5134 154 55.3134 154 56.6134C154 57.1134 154.9 57.6134 155.4 58.1134C155.2 58.5134 155.1 59.0134 154.9 59.4134C155 59.5134 155.2 59.6134 155.3 59.7134C155.5 59.2134 155.8 58.8134 156.1 58.2134C156.6 59.0134 156.9 59.5134 157.2 60.1134C156.9 60.5134 156.5 61.1134 156 61.7134Z" fill="black"/>
<path d="M64.4 143.213C63.8 142.413 63.3 141.813 62.7 141.113C62.4 141.713 62.2 142.013 62 142.513C61 142.013 60.2 141.213 59.6 140.313C58.3 138.413 57.2 136.413 55.9 134.513C55.1 133.313 55 131.913 55.3 130.413C56.5 130.113 56.8 131.613 57.8 132.013C57.8 131.113 57.8 130.313 57.8 129.313C59.8 129.013 61.6 128.813 63.4 128.513C65.2 130.113 66.4 131.913 67.3 133.913C67.8 135.113 68.8 135.913 69.1 137.313C69.2 137.813 68.5 138.513 69.4 138.913C69.4 138.913 69.2 139.513 69.1 139.513C67.7 139.013 67.3 141.013 66 140.713C65.9 140.713 65.7 141.213 65.6 141.513C65.5 141.813 65.4 142.113 65.2 142.413C65.1 142.613 64.9 142.813 64.4 143.213Z" fill="black"/>
<path d="M124.8 176.113C125.2 177.013 125.5 177.713 125.9 178.613C126.2 177.913 126.3 177.613 126.4 177.313C126.5 177.413 126.7 177.413 126.7 177.513C126.9 178.413 127.4 179.213 128.1 179.913C128.5 180.313 128.8 180.913 129.1 181.413C129.6 182.313 130.3 183.013 131.4 183.213C131.6 182.813 131.8 182.513 131.8 182.313C132.3 182.713 132.9 183.113 133.3 183.413C133.3 183.713 133.3 183.913 133.3 183.913C132.8 184.213 132.3 184.513 131.8 184.813C131.9 185.513 132.1 186.213 132.2 187.213C131.4 186.813 130.9 186.613 130.3 186.313C129.9 187.013 129.6 187.713 129.2 188.513C128.8 188.513 128.4 188.613 127.9 188.713C127.9 189.113 127.9 189.613 127.9 189.913C126.5 190.913 125.4 190.813 124.2 189.713C122.9 188.513 121.4 187.513 120.1 186.113C120.7 185.713 121.2 185.413 121.8 185.013C121.5 183.913 121 182.913 120.2 182.013C119.4 181.013 119 179.813 118.4 178.713C119.2 177.713 119.8 178.413 120.6 178.813C120.6 178.513 120.8 178.213 120.7 178.013C120.2 176.813 120.4 176.213 121.5 176.113C122.6 176.113 123.7 176.113 124.8 176.113Z" fill="black"/>
<path d="M47.1 186.913C47.6 187.613 47.9 188.113 48.4 188.813C48.5 188.413 48.7 188.213 48.6 188.013C48.4 187.013 48.2 186.013 47.9 184.913C48.6 184.913 49 184.913 49.5 184.913C49.6 185.213 49.8 185.513 50.1 186.213C50.1 185.213 50.1 184.613 50.1 184.013C50.4 183.913 50.7 183.913 50.9 183.713C51.3 183.413 52 182.713 52.1 182.713C52.8 183.313 53.6 182.913 54.3 183.213C55.3 183.613 56.3 184.313 56.2 185.513C56.2 185.913 55.7 186.313 55.8 186.613C55.9 186.913 56.6 186.913 56.8 187.213C57 187.413 57 188.113 56.8 188.213C56.1 188.813 56.2 189.513 56.3 190.213C56.4 191.113 56 191.613 55.2 191.813C54.4 192.013 54.2 192.513 54 193.313C53.8 194.413 53 195.113 51.7 195.113C51.3 195.113 50.8 195.113 50.4 195.213C49.3 195.413 48 195.213 47.6 194.413C46.8 192.513 45.6 190.613 45.8 188.313C46 187.613 46.6 187.313 47.1 186.913Z" fill="black"/>
<path d="M134.6 137.913C135.3 138.113 136 138.313 136.9 138.613C137.3 137.713 137.4 136.913 136.6 136.113C137.6 135.213 138.2 136.513 139.1 136.413C139.2 135.913 139.3 135.413 139.4 134.913C140.1 134.113 140.8 135.613 141.7 134.913C142.6 134.213 142.8 135.713 143.6 135.913C144 136.013 144.4 136.413 144.7 136.813C145.7 138.113 145.9 139.813 147.3 140.913C147.6 141.213 147.5 142.113 147.5 142.913C146 142.113 145.9 144.613 144.4 144.013C143.9 144.713 144.4 146.113 142.7 146.213C142.5 145.913 142.3 145.413 141.9 144.813C141.6 145.513 141.4 145.813 141.2 146.213C140.3 146.413 139.8 145.613 139.5 145.113C138.5 143.413 137.2 142.113 135.5 141.113C134.5 140.413 133.9 139.413 134.6 137.913Z" fill="black"/>
<path d="M121.3 65.4133C120 66.4133 119.1 67.2133 117.8 68.1133C117.3 68.1133 116.4 68.1133 115.5 68.1133C114.6 66.8133 114.3 65.1133 113 64.0133C112.9 62.2133 111.6 61.1133 110.5 59.8133C110.2 59.4133 110.2 58.6133 110.1 57.9133C110.5 57.8133 110.9 57.8133 111.1 57.6133C113.2 55.6133 115.2 56.7133 116.8 58.1133C118.2 59.2133 119.4 60.7133 120.4 62.3133C121.1 63.2133 121.1 64.5133 121.3 65.4133Z" fill="black"/>
</svg>
