<svg width="197" height="174" viewBox="0 0 197 174" fill="none" xmlns="http://www.w3.org/2000/svg">
<path d="M82.3 101.7C82.6 101.1 83.1 100.6 83.3 100C84 97.8 85.9 97 87.8 96.5C89.1 96.1 90.4 95.7 91.9 95.8C95.2 96 97.6 97.6 99.2 100.4C100 101.7 100.7 103 101 104.5C101.2 105.5 101.5 106.7 101.2 107.6C100.1 111.2 98.1 114.1 94.4 115.5C93.4 115.9 92.3 116.2 91.3 116.5C91.1 116.6 90.9 116.6 90.8 116.5C88.1 115.2 85.5 113.7 84 111.1C83.3 110 82.7 108.7 82.9 107.2C83.1 105.5 82.4 103.7 83.4 102C83 102 82.7 101.9 82.3 101.7ZM87.7 110C89.1 110 90.3 110.2 91.4 110C93.4 109.5 96.1 105.4 96 103.3C96 103 95.9 102.5 95.7 102.4C94.7 101.8 93.6 101.3 92.6 100.8C92 101.9 90.1 100.7 89.8 102.4C89.7 103.1 88 102.7 88.5 104C87.2 105.9 88 108 87.7 110Z" fill="black"/>
<path d="M2.7 133.8C1.8 133.6 1.3 133.2 1.6 132.2C1.7 132.1 2 132.1 2.2 131.9C4 130.6 6.1 130.4 8.1 129.8C9 129.5 10.3 129.8 11.1 130.3C13.4 132 15.9 133.5 16.9 136.5C17.8 139 17.4 142.1 15.9 144.1C15 145.3 13.7 146 12.8 147.2C11.3 147 9.7 147.6 8.1 146.7C7.4 146.3 4.3 144.6 3.7 144.2C2.3 143.1 1.7 141.6 1.2 140.1C1.1 139.8 0.900002 139.4 1 139.1C1.7 137.3 1.2 135.3 2.7 133.8Z" fill="black"/>
<path d="M142.8 79.4001C143.3 79.6001 143.6 79.7001 144 79.8001C143.7 80.7001 143.5 81.5001 143.2 82.3001C142.8 82.3001 142.3 82.4001 141.7 82.5001C141.9 82.8001 142 82.9001 142.2 83.2001C141.3 84.3001 140.2 85.2001 138.6 85.1001C138.2 85.1001 137.8 85.2001 137.4 85.4001C136.3 85.8001 135.2 85.8001 134.1 85.3001C133.7 85.1001 133 84.9001 132.9 85.1001C131.9 86.4001 131 84.7001 130 85.0001C129.6 85.1001 129.2 84.0001 128.3 84.0001C127.8 84.0001 127.4 83.3001 126.9 83.0001C126.3 82.7001 126.1 81.8001 125.2 81.9001C124.8 80.6001 123.4 79.9001 122.8 78.8001C121.3 76.3001 121.3 72.7001 122.5 70.3001C123.6 68.2001 125.7 67.5001 127.5 69.0001C128.4 69.7001 129.1 70.2001 130.2 69.4001C130.6 70.0001 130.9 69.7001 131.2 69.3001C131.6 68.6001 132.3 68.6001 132.9 68.7001C135.1 69.2001 137.2 69.8001 139 71.1001C140.5 72.2001 141.6 74.0001 142.9 75.4001C142.6 76.7001 144.3 77.9001 142.8 79.4001ZM125.8 77.6001C128 79.7001 131.6 80.8001 134.6 80.7001C136 80.6001 137.1 80.1001 138 79.2001C138.5 78.6001 139.1 78.1001 139.7 77.5001C139.4 77.1001 139.1 76.8001 139 76.5001C138.6 75.1001 137.8 74.2001 136.2 74.1001C135.5 74.0001 134.8 73.6001 134.1 73.4001C133.6 73.3001 132.8 73.0001 132.7 73.2001C132 74.2001 131.7 72.6001 130.8 73.4001C130.3 73.9001 129.5 74.6001 128.6 75.4001C127.9 74.9001 127.4 74.5001 126.9 74.1001C125.3 74.9001 126.2 76.3001 125.8 77.6001Z" fill="black"/>
<path d="M162.6 141.4C163.4 141 164.3 140.3 165.7 140.8C165.6 141 165.4 141.2 165.2 141.5C165.7 141.6 166.6 141.7 166.7 141.9C167.1 143.6 169 144 169.6 145.6C170.6 148.2 171.4 150.8 170 153.6C169.8 153.9 169.7 154 169.9 154.4C170.5 155.6 169.9 156.4 168.9 157C168.1 157.4 168.6 157.8 169 158.3C168.1 159.5 167.1 160.7 166.2 161.9C165.2 161.9 164.3 161.9 163.2 161.9C162.6 161.3 162 160.6 161.3 159.9C160.7 159.2 159.9 158.8 159.4 158C158.2 156.2 157.9 154.3 158.4 152.3C158.7 150.8 159.5 149.3 159.9 147.8C160.1 146.8 160.4 146 161.4 145.4C161.8 145.2 162.1 144.4 162.1 143.8C162.1 143 162.6 142.7 163 142.2C162.9 142.1 162.7 141.7 162.6 141.4Z" fill="black"/>
<path d="M185.2 65.4001C184.8 66.0001 184.4 66.5001 184.1 67.1001C183.9 66.9001 183.6 66.5001 183.5 66.5001C181.6 66.8 180.9 64.9 179.6 64.2001C179.5 64.1001 179.4 63.6001 179.4 63.5001C180.8 62.3001 179.3 61.5001 179.1 60.5001C178.9 60.7001 178.7 60.9001 178.5 61.0001C178.4 60.9001 178.3 60.9 178.3 60.8C178.4 59.6 177.7 58.3001 178.9 57.3001C179.2 57.1001 179.1 56.5001 179.3 56.1001C179.8 55.2001 180 54.0001 180.9 53.4001C181.9 52.8001 181.5 51.6001 182.5 50.9001C184.1 49.7001 186.7 49.1001 188.6 49.8001C191.4 50.8001 193.2 53.0001 194.2 55.5001C195 57.6001 195.4 59.9001 195 62.2001C194.8 63.5 193.6 64.4 192.6 65.2001C192.3 65.4 191.5 65.1001 190.8 65.0001C190.8 65.2001 190.9 65.6001 191 65.9001C191.3 66.3001 191.4 66.8001 190.8 66.9001C190.2 67.1001 190 66.7001 190.1 66.1001C190.1 66.0001 189.9 65.9001 189.6 65.7001C189.2 66.1001 188.7 66.4001 188.2 66.9001C188.1 66.6001 188 66.3 187.9 65.7001C187.2 66.4001 186.5 67.0001 185.6 67.8001C185.5 66.9001 185.4 66.2001 185.2 65.4001ZM190.3 55.8001C190.2 55.7001 190 55.6001 189.9 55.4001C189.5 54.3001 188.3 54.5001 187.4 54.2001C187 54.0001 186.2 54.8001 185.5 55.1001C185.2 55.3001 184.7 56.2001 184.3 56.8001C184 57.3001 183.7 58.1001 183.3 58.2001C182.4 58.3 182.6 58.8 182.5 59.3C182.4 59.7001 182.2 60 182.1 60.3C184 62.2001 185.8 61.4001 187.8 60.5001C190 59.5001 190.4 57.8001 190.3 55.8001Z" fill="black"/>
<path d="M47.8 93.4999C48.3 93.8999 48.5 94.1 48.7 94.2999C48.9 93.9999 49 93.2999 49.2 93.2999C49.8 93.2 50.6 93.0999 51 93.3999C52.3 94.2999 53.6 95.2999 54.6 96.4999C55.5 97.6999 56.1 99.0999 56.5 100.6C56.7 101.4 56.6 102.4 56.1 103.4C55.1 105.5 54.1 107.3 52 108.5C51.1 109 50 109.1 49.2 109.6C48.9 109.8 48.4 109.9 48 110.1C47.9 109.8 47.7 109.5 47.5 109.2C47.2 109.6 47 109.6 46.5 109.3C45.7 108.7 44 107.2 43.3 106.6C41 104.7 42.3 102.4 42.4 100.3C42.4 99.7999 43.3 99.2999 43.8 98.6999C45.7 99.6999 46.6 101.3 47.3 103.1C49.1 102.9 49.4 101.2 50.4 100.2C50.6 99.9999 50.5 99.3999 50.5 98.4999C49.6 99.3999 49 99.9999 48.5 100.5C47.1 100.4 47.3 98.6999 46.1 98.5999C46.1 97.4999 45.9 96.3999 46.1 95.3999C46.5 94.5999 47.2 94.1999 47.8 93.4999Z" fill="black"/>
<path d="M152 22.5999C152.8 21.7999 153.4 21.1999 154 20.5999C155.1 20.5999 156.2 20.5999 157.4 20.5999C157.8 19.0999 156.7 19.6999 156 19.4999C156.1 19.2999 156.1 19.0999 156.2 18.9999C157.1 18.2999 155.8 17.9999 155.9 17.1999C156.5 15.7999 158.1 15.5999 159.3 14.7999C159.6 14.5999 160.3 14.6999 160.7 14.8999C162.9 15.7999 163.7 17.7999 164.6 19.7999C165.2 21.0999 164.6 22.5999 165.6 23.6999C165.2 25.1999 165 26.7999 164.3 28.0999C163.5 29.4999 161.9 30.1999 160.4 30.3999C159.6 30.4999 158.8 31.4999 158 30.7999C157.3 30.2999 156.3 30.5999 155.7 29.6999C155.2 29.0999 154.2 28.9999 154 27.9999C153.9 27.4999 152.9 27.3999 152.4 26.5999C151.8 25.1999 152.4 23.8999 152 22.5999Z" fill="black"/>
<path d="M140 109.8C139.7 109.2 139.3 108.5 139 107.9C139.3 106.3 141.2 106.7 141.8 105.5C142.4 104.3 144.2 104.8 145.2 103.5C144.8 103.2 144.4 103 144.1 102.7C144.2 102.6 144.2 102.4 144.3 102.4C146.1 102.1 147.5 103 148.7 104.2C149.7 105.1 150.3 106.4 151.1 107.5C151.5 108.1 150.8 108.7 151.4 109.1C152 109.5 152.2 110 152.1 110.7C152 111.4 152.7 112.2 152.6 112.6C152.3 113.5 152.3 114.5 152 115.3C151.4 116.9 150.6 118.4 149.3 119.6C148.6 120.3 147.5 120.5 146.2 120.3C143.1 119.8 143 119.8 141.6 118.2C140.5 117 139.8 115.6 139.5 113.9C139.3 112.9 138.8 112.1 139.4 111.1C138.5 110.5 139.9 110.5 140 109.8ZM142.5 108C142.8 109.4 143.1 110.5 143.4 111.6C143.5 111.9 143.5 112.3 143.4 112.4C142.2 113.5 143.3 114.4 143.6 115.4C145.7 115.4 145.6 115.3 146.7 113.8C148 112 147.8 110 147.7 108C147.7 107.6 147.3 107.2 147 106.9C146.4 106.4 145.4 107.2 144.8 106.3C144.6 106.6 144.4 106.9 144.2 107.2C143.2 106.6 143 107.7 142.5 108Z" fill="black"/>
<path d="M66.9 35.8C69.4 37.2001 70 38.4001 68.6 40.5C67.9 41.6 68.8 42.8 67.8 43.7001C67.7 43.8 68 44.6001 68.2 45C68.6 46.2001 69 46.3 70.4 46C73 45.3 74.2 43.5 74.8 41C73.8 40.7001 72.9 40.5 71.9 40.2001C70.7 39.8 71.2 38.5 70.7 37.9001C71.3 37.3001 71.9 36.7 72.5 36.1C74.2 35.2 75.2 37 76.7 37.4001C77.8 39.2001 79.4 40.8 79.2 43.2001C79 46.2001 77.7 48.8 74.4 50C71.6 51 69.4 50.6001 67.1 48.5C65.7 47.2001 64.5 45.9 64.4 43.6C64.1 40.7 64.7 38 66.9 35.8Z" fill="black"/>
<path d="M63 147.6C60.6 148.3 59.3 146.7 57.7 145.7C56.2 144.8 56.1 143.1 55.6 141.7C55.2 140.4 56 139 56.5 137.8C56.9 136.7 57.6 135.8 58.1 134.8C57.9 134.7 57.5 134.6 57.2 134.5C57.6 134.1 58 133.7 58.4 133.2C57.8 133.1 57.3 133 56.5 132.9C57 132.5 57.4 132 57.7 132C58.6 132.1 59.6 131.7 60.6 132.3C63.1 133.7 64.4 136 65.4 138.5C66.6 141.9 65.9 145 63 147.6Z" fill="black"/>
<path d="M93.3 160.6C93 161.1 92.8 161.6 92.6 162.1C94.4 163.9 95.1 166.2 94.8 168.7C94.7 169.3 94.7 169.8 94.3 170.4C93.4 171.5 93.3 173.1 91.6 173.6C90.9 173.8 90.1 174.1 89.6 173.8C88.2 173.1 86.7 172.6 85.8 171.2C85.4 170.5 85 169.8 84.9 168.9C84.6 165.9 85.8 163.4 87.4 160.9C87.7 160.4 88.3 160 89 159.7C89.8 159.3 90.3 159 91.1 159.6C91.8 160 92.5 160.2 93.3 160.6Z" fill="black"/>
<path d="M191.7 98.1C190.6 97.3 190 95.8 188.3 95.8C187.9 95.1 187.2 94.4 187.1 93.6C186.8 91.7 187.2 90 189.2 89.1C189.4 89 189.6 88.7 189.8 88.5C189.5 88.4 189.2 88.3 189.1 88.3C189.6 87.8 190.2 87.2 190.7 86.7C190.6 86.6 190.4 86.4 190.3 86.3C190.5 86.3 190.8 86.2 191 86.2C192.1 86.4 193.4 85.6 194.3 86.8C195.5 88.3 196.4 89.8 196.8 91.7C197.3 94.2 194.8 97 193 97.9C192.5 98.1 191.9 97.2 191.7 98.1Z" fill="black"/>
<path d="M119.4 131.3C119.4 132.1 119.4 132.4 119.4 132.8C119.7 134.7 118.1 135.3 117.1 136.1C116 136.9 115 135.7 114 135.4C113.1 135.1 112.3 134.2 111.5 133.5C110.2 132.3 109.7 129.6 110.5 128C110.7 127.6 110.5 127 111.4 126.9C111.9 126.9 112.4 126 112.9 125.5C114 124.1 115 123.9 116.2 125.2C117 126 117.9 126.7 118.4 127.8C119 129 119.7 130.2 119.4 131.3Z" fill="black"/>
<path d="M89.7 69.2C90.9 70.5 92.2 71.6 92.8 73.3C93.6 75.5 93.1 76.7 91.3 78C89.2 79.5 87.7 79.2 85.9 77.3C85.6 77 85.4 76.7999 85.2 76.6C84.9 75.6 85.6 74.5 84.6 73.8C84 71.3 85.7 69.2 88.4 69.2C88.7 69.2 89.2 69.2 89.7 69.2Z" fill="black"/>
<path d="M115 41.1999C115.5 40.7999 115.8 40.5999 116.1 40.2999C115.7 39.9999 115.4 39.6999 115.1 39.3999C115.2 39.1999 115.4 39.0999 115.6 38.7999C115 38.6999 114.4 38.4999 113.8 38.3999C114.6 36.2999 116.5 36.1999 118 35.4999C118.3 35.3999 118.9 35.7999 119.3 35.9999C120.8 37.1999 121.8 38.5999 122.6 40.2999C122.7 40.4999 122.8 40.8999 122.7 40.9999C121.4 42.0999 123.1 44.1999 121.4 44.9999C121.1 45.0999 120.3 44.2999 119.4 44.1999C119.8 44.5999 120.1 44.9999 120.5 45.3999C119.8 45.7999 119.2 46.2999 118.5 46.6999C118.3 46.7999 118 46.6999 117.7 46.6999C117.5 46.6999 117.2 46.5999 117.3 46.4999C117.5 44.9999 115.7 46.0999 115.5 45.0999C115.4 44.5999 115 44.1999 115 43.6999C115 42.9999 115 42.0999 115 41.1999Z" fill="black"/>
<path d="M118.9 1.2C118.9 0.6 118.9 0.3 118.9 0C119.7 0 120.5 0 121.3 0C122.5 1.8 124.2 3.6 123.6 6.4C123.2 6.4 122.7 6.5 122 6.5C122 5.7 122 5 122 4.3C121.6 4.4 121.2 4.3 121.1 4.5C120.9 4.7 120.9 5.1 120.7 5.4C120.4 5.9 120.2 5.8 119.7 5.1C119.4 4.6 119 4.2 118.5 3.7C119.1 3.4 119.4 3.3 119.8 3.1C118.7 2.5 118.7 2.6 119.6 1.6C119.8 1.4 119.7 1 119.7 0.5C119.5 0.7 119.3 0.8 118.9 1.2Z" fill="black"/>
</svg>
